<svg width="171" height="23" viewBox="0 0 171 23" fill="none" xmlns="http://www.w3.org/2000/svg">
<path d="M89.1738 3.03397C92.7441 3.03397 95.1154 4.50589 95.1154 7.44973C95.1509 8.31397 94.8945 9.16504 94.3875 9.86607C93.8805 10.5671 93.1523 11.0773 92.32 11.3148C93.7661 11.7153 95.8134 12.8635 95.8134 15.7072C95.8134 19.6723 91.9192 20.4967 89.3742 20.4967H82.0266V3.03397H89.1738ZM89.0002 5.03658H84.1173V10.467H89.5846C91.4082 10.467 93.008 9.74272 93.008 7.74678C93.008 5.67408 91.485 5.0299 89.0135 5.0299L89.0002 5.03658ZM89.5212 12.4696H84.1173V18.5008H88.9634C91.1577 18.5008 93.706 18.3506 93.706 15.4969C93.706 12.7633 91.2078 12.4629 89.5345 12.4629L89.5212 12.4696Z" fill="white"/>
<path d="M104.39 8.22406C107.66 8.22406 110.783 10.4169 110.783 14.5089C110.783 18.6009 107.66 20.7971 104.39 20.7971C101.12 20.7971 98.001 18.6009 98.001 14.5089C98.001 10.4169 101.147 8.22406 104.39 8.22406ZM104.39 10.1199C101.945 10.1199 99.9983 11.7386 99.9983 14.5089C99.9983 17.2792 101.945 18.9013 104.39 18.9013C106.835 18.9013 108.785 17.2792 108.785 14.5089C108.785 11.7386 106.838 10.1199 104.39 10.1199Z" fill="white"/>
<path d="M119.232 8.22406C122.502 8.22406 125.622 10.4169 125.622 14.5089C125.622 18.6009 122.492 20.7971 119.232 20.7971C115.973 20.7971 112.84 18.6009 112.84 14.5089C112.84 10.4169 115.976 8.22406 119.232 8.22406ZM119.232 10.1199C116.784 10.1199 114.837 11.7386 114.837 14.5089C114.837 17.2792 116.774 18.9013 119.232 18.9013C121.691 18.9013 123.624 17.2792 123.624 14.5089C123.624 11.7386 121.667 10.1199 119.232 10.1199Z" fill="white"/>
<path d="M132.355 8.22407C133.831 8.22182 135.286 8.57198 136.6 9.2454V11.1412C135.348 10.4117 133.927 10.0227 132.478 10.0131C131.179 10.0131 129.806 10.437 129.806 11.6085C129.806 14.2019 137.421 13.1071 137.421 17.4227C137.421 19.916 135.083 20.7905 132.478 20.7905C130.782 20.7905 128.958 20.3399 127.836 19.6156V17.6898C129.204 18.5244 130.775 18.9656 132.378 18.9647C134.075 18.9647 135.424 18.6877 135.424 17.4928C135.424 14.9729 127.786 15.9708 127.786 11.6786C127.786 9.19534 130.107 8.22407 132.355 8.22407Z" fill="white"/>
<path d="M142.889 4.3056V8.5211H147.681V10.3668H142.889V16.5549C142.889 18.3773 143.713 18.9247 145.46 18.9247C146.369 18.9141 147.267 18.7283 148.105 18.3773V20.223C147.07 20.5826 145.982 20.7676 144.886 20.7704C142.565 20.7704 140.918 19.5221 140.918 16.9054V10.3668H138.67V8.5211H140.918V4.80292L142.889 4.3056Z" fill="white"/>
<path d="M155.496 8.22406C160.115 8.22406 161.812 11.989 161.064 15.3834H151.529C151.776 17.9034 154.05 18.9514 156.472 18.9514C157.847 18.9549 159.201 18.6202 160.416 17.9768V19.9227C159.317 20.4967 157.744 20.7971 156.171 20.7971C152.628 20.7971 149.531 18.7745 149.531 14.5089C149.531 10.3168 152.651 8.22406 155.496 8.22406ZM155.623 10.0698C153.576 10.0698 151.679 11.2914 151.529 13.6344H159.29C159.468 12.3494 158.666 10.0698 155.637 10.0698H155.623Z" fill="white"/>
<path d="M171 8.27078V10.2734C168.662 9.9997 166.755 11.1212 166.034 13.0437V20.4967H164.03V8.5211H165.827V10.6439C166.782 9.07182 168.903 8.09722 171 8.27078Z" fill="white"/>
<path d="M56.5302 3.03397V8.07387H51.8544V20.4967H46.0898V8.07387H41.4141V3.03397H56.5302Z" fill="white"/>
<path d="M60.4746 7.29951C59.0284 7.29951 57.7292 6.4751 57.7292 4.65606C57.7292 2.83703 59.0284 2.03598 60.4746 2.03598C61.9207 2.03598 63.2232 2.85705 63.2232 4.67275C63.2232 6.48846 61.9474 7.29951 60.4746 7.29951ZM57.8561 20.4967V8.52111H63.123V20.4967H57.8561Z" fill="white"/>
<path d="M73.4565 20.4967L71.1854 16.4548H70.4373V20.4967H65.1704V3.03397H70.4373V12.3495H71.2121L73.3329 8.50777H79.0508L75.3536 14.4355L79.1743 20.4967H73.4565Z" fill="white"/>
<path fill-rule="evenodd" clip-rule="evenodd" d="M7.29421 6.44843L5.47066 13.294H4.24493L6.06849 6.44843H7.29421Z" fill="#02F4E6"/>
<path fill-rule="evenodd" clip-rule="evenodd" d="M15.5536 6.44843L13.6633 13.5076H12.4309L14.3212 6.46178L15.5536 6.44843Z" fill="#02F4E6"/>
<path fill-rule="evenodd" clip-rule="evenodd" d="M23.8331 17.88H4.17815L3.1762 21.6716H1.93378L3.30645 16.5516H22.9614C23.4223 16.5257 23.8609 16.3453 24.2064 16.0394C24.5518 15.7335 24.7839 15.3201 24.8651 14.8661C26.5952 15.1731 25.5999 17.88 23.8331 17.88Z" fill="#02F4E6"/>
<path fill-rule="evenodd" clip-rule="evenodd" d="M26.9759 7.09925C26.671 7.02929 26.362 6.97801 26.0508 6.94571C26.1219 6.79337 26.1703 6.63144 26.1944 6.46509C26.3681 6.49501 26.5312 6.56905 26.6681 6.6801C26.8049 6.79115 26.9109 6.93548 26.9759 7.09925Z" fill="#02F4E6"/>
<path fill-rule="evenodd" clip-rule="evenodd" d="M29.748 11.0911C28.9431 10.2634 27.7207 9.75607 26.0508 9.71935H19.8019L20.1593 8.38428H25.1691C27.6239 8.41765 29.1034 9.52577 29.748 11.0911Z" fill="#02F4E6"/>
<path fill-rule="evenodd" clip-rule="evenodd" d="M31.0839 2.84371C30.5971 2.35235 30.0153 1.96519 29.3739 1.70582C28.7326 1.44645 28.0451 1.32031 27.3533 1.33507H2.24437L1.24242 5.12669H0L1.37268 0H26.4816C28.6893 0.0267015 30.3525 1.14483 31.0839 2.84371Z" fill="#02F4E6"/>
<path fill-rule="evenodd" clip-rule="evenodd" d="M31.2609 6.63867C31.0262 7.49926 30.654 8.31636 30.1588 9.05849C29.3639 8.04891 28.2358 7.35452 26.9759 7.09927C26.9095 6.93335 26.801 6.7876 26.661 6.67639C26.521 6.56518 26.3544 6.49236 26.1777 6.46511C26.2129 6.31029 26.2139 6.14968 26.1808 5.99441C26.1476 5.83914 26.0811 5.69294 25.9858 5.56593C25.8905 5.43892 25.7686 5.33415 25.6288 5.25888C25.4889 5.18361 25.3343 5.13965 25.1757 5.13003H19.832L18.9536 8.39763H20.1827L19.8253 9.7327H26.0508C27.7207 9.75273 28.9431 10.2767 29.748 11.1045C31.3578 14.9729 27.8543 21.6716 21.375 21.6716H3.16283L4.16479 17.88H23.8331C25.5999 17.88 26.5952 15.1731 24.8651 14.8761C24.9954 14.1718 24.6681 13.5176 23.6494 13.5176H13.6633L15.5537 6.45843H14.3213L14.682 5.12336L11.5091 5.15674L9.36826 13.294H5.47067L7.29422 6.44842H6.0685L6.42252 5.11335H1.22906L2.24438 1.33509H27.3533C28.0451 1.32032 28.7326 1.44646 29.3739 1.70583C30.0153 1.9652 30.5971 2.35236 31.0839 2.84372C31.5701 4.05242 31.6325 5.39001 31.2609 6.63867Z" fill="white"/>
<path fill-rule="evenodd" clip-rule="evenodd" d="M6.0685 6.44842H0.875046L1.22907 5.12003H6.42253L6.0685 6.44842Z" fill="#FE0051"/>
<path fill-rule="evenodd" clip-rule="evenodd" d="M5.47066 13.294H9.36826L11.5091 5.1534L14.6819 5.12003L14.3212 6.46178L12.3841 6.4818L10.24 14.6224H5.11664L5.47066 13.294Z" fill="#FE0051"/>
<path fill-rule="evenodd" clip-rule="evenodd" d="M23.6494 13.5076C24.6514 13.5076 24.9854 14.1752 24.8651 14.8661C24.755 14.8459 24.6432 14.8358 24.5312 14.836H13.3059L13.6633 13.5009L23.6494 13.5076Z" fill="#FE0051"/>
<path fill-rule="evenodd" clip-rule="evenodd" d="M20.1593 8.38762H18.9302L19.8086 5.12003H25.1524C25.3109 5.12964 25.4655 5.17361 25.6054 5.24887C25.7453 5.32414 25.8671 5.42891 25.9624 5.55592C26.0577 5.68293 26.1243 5.82913 26.1574 5.9844C26.1905 6.13967 26.1895 6.30028 26.1543 6.4551L26.0207 6.43841H20.6803L20.1593 8.38762Z" fill="#FE0051"/>
<path fill-rule="evenodd" clip-rule="evenodd" d="M29.748 11.0911C33.0878 14.4856 29.5576 23 22.2333 23H2.80547L3.16283 21.6649H21.375C27.8543 21.6716 31.3578 14.9729 29.748 11.0911Z" fill="#FE0051"/>
<path fill-rule="evenodd" clip-rule="evenodd" d="M32.136 7.96707C31.9 8.8278 31.5267 9.64489 31.0305 10.3869C29.9818 9.05182 28.569 8.44436 26.9058 8.27414C26.9977 8.09366 27.0514 7.89617 27.0635 7.69401C27.0755 7.49186 27.0457 7.28939 26.9759 7.09927C28.2358 7.35452 29.3639 8.04891 30.1588 9.05849C30.654 8.31636 31.0261 7.49926 31.2609 6.63867C31.6325 5.39001 31.5701 4.05242 31.0839 2.84372C32.2395 4.06198 32.687 5.90772 32.136 7.96707Z" fill="#FE0051"/>
</svg>
